<?xml version="1.0" encoding="UTF-8"?>
<svg width="26px" height="26px" viewBox="0 0 26 26" version="1.1" xmlns="http://www.w3.org/2000/svg" xmlns:xlink="http://www.w3.org/1999/xlink">
    <!-- Generator: Sketch 42 (36781) - http://www.bohemiancoding.com/sketch -->
    <title>customize-icon</title>
    <desc>Created with Sketch.</desc>
    <defs></defs>
    <g id="Assets" stroke="none" stroke-width="1" fill="none" fill-rule="evenodd" stroke-linecap="square">
        <g id="Artboard-2" transform="translate(-216.000000, -384.000000)" stroke="#052A4E" stroke-width="2">
            <g id="Group-8" transform="translate(217.000000, 385.000000)">
                <path d="M14,3.22301642 L14,0 L10,0 L10,3.22301642 C9.0621618,3.4358232 8.17994984,3.79508747 7.37868098,4.27549237 L5.10318862,2 L2,5.10318862 L4.27549237,7.37868098 C3.79508747,8.17994984 3.4358232,9.0621618 3.22301642,10 L-8.52651283e-14,10 L-8.52651283e-14,14.3885714 L3.32039352,14.3885714 C3.54310487,15.1996952 3.87647344,15.9650233 4.3032532,16.6673095 L2,18.9705627 L5.10318862,22.0737514 L7.42490567,19.7520343 C8.2138343,20.218649 9.0801614,20.5682611 10,20.7769836 L10,24 L14,24 L14,20.7769836 C14.9378382,20.5641768 15.8200502,20.2049125 16.621319,19.7245076 L18.9705627,22.0737514 L22.0737514,18.9705627 L19.7245076,16.621319 C20.1379999,15.931654 20.4617472,15.1820237 20.6796065,14.3885714 L24,14.3885714 L24,10 L20.7769836,10 C20.5682611,9.0801614 20.218649,8.2138343 19.7520343,7.42490567 L22.0737514,5.10318862 L18.9705627,2 L16.6673095,4.3032532 C15.853853,3.80891517 14.9558162,3.43990262 14,3.22301642 Z" id="Combined-Shape"></path>
                <g id="Group-2-Copy-2" transform="translate(8.000000, 8.000000)">
                    <circle id="Oval" cx="4" cy="4" r="4"></circle>
                </g>
            </g>
        </g>
    </g>
</svg>